<svg width="109" height="16" viewBox="0 0 109 16" fill="none" xmlns="http://www.w3.org/2000/svg">
<path d="M5.3489 7.97992L102.357 8.11784" stroke="#CACACA" stroke-width="0.836813" stroke-linecap="square" stroke-dasharray="1.67 4.18"/>
<path d="M51.1947 15.5522H52.8475L56.9794 9.19242L61.5246 9.19242C62.2105 9.19242 62.7642 8.6598 62.7642 7.99996C62.7642 7.34012 62.2105 6.8075 61.5246 6.8075L56.9794 6.8075L52.8475 0.447754L51.1947 0.447754L53.2606 6.80754L48.7155 6.80754L47.4759 5.21758H46.2363L47.0627 8L46.2363 10.7824H47.4759L48.7155 9.19242H53.2607L51.1947 15.5522Z" fill="#1262AE"/>
<circle cx="5.44531" cy="7.94775" r="3.66319" fill="white" stroke="#1262AE" stroke-width="1.67363"/>
<path d="M107.218 8.63182C107.218 10.4502 105.676 11.9791 103.705 11.9791C101.735 11.9791 100.193 10.4502 100.193 8.63182C100.193 6.81346 101.735 5.28457 103.705 5.28457C105.676 5.28457 107.218 6.81346 107.218 8.63182Z" fill="white" stroke="#1262AE" stroke-width="1.67363"/>
</svg>
