<svg width="25" height="25" viewBox="0 0 25 25" fill="none" xmlns="http://www.w3.org/2000/svg">
<path d="M12.5 22.8034C9.76736 22.8034 7.14664 21.7179 5.21437 19.7856C3.2821 17.8533 2.19656 15.2326 2.19656 12.5C2.19656 9.76733 3.2821 7.14661 5.21437 5.21434C7.14664 3.28207 9.76736 2.19653 12.5 2.19653C15.2326 2.19653 17.8534 3.28207 19.7856 5.21434C21.7179 7.14661 22.8034 9.76733 22.8034 12.5C22.8034 15.2326 21.7179 17.8533 19.7856 19.7856C17.8534 21.7179 15.2326 22.8034 12.5 22.8034ZM12.5 24.2753C15.623 24.2753 18.6181 23.0347 20.8264 20.8264C23.0347 18.6181 24.2754 15.623 24.2754 12.5C24.2754 9.37695 23.0347 6.38184 20.8264 4.17353C18.6181 1.96522 15.623 0.724609 12.5 0.724609C9.37698 0.724609 6.38187 1.96522 4.17357 4.17353C1.96526 6.38184 0.724644 9.37695 0.724644 12.5C0.724644 15.623 1.96526 18.6181 4.17357 20.8264C6.38187 23.0347 9.37698 24.2753 12.5 24.2753V24.2753Z" fill="#1262AF"/>
<path d="M9.87142 7.49995C10.0103 7.42845 10.1662 7.39664 10.3219 7.40802C10.4777 7.4194 10.6273 7.47354 10.7543 7.56446L16.6967 11.809C16.8067 11.8875 16.8964 11.9912 16.9583 12.1114C17.0202 12.2316 17.0525 12.3648 17.0525 12.5C17.0525 12.6352 17.0202 12.7685 16.9583 12.8886C16.8964 13.0088 16.8067 13.1125 16.6967 13.191L10.7543 17.4356C10.6273 17.5264 10.4778 17.5805 10.3221 17.5919C10.1664 17.6033 10.0106 17.5715 9.87182 17.5001C9.73301 17.4287 9.61659 17.3204 9.53535 17.1871C9.4541 17.0538 9.41118 16.9007 9.41131 16.7446V8.25548C9.41115 8.09942 9.454 7.94633 9.53518 7.81304C9.61635 7.67976 9.73269 7.57142 9.87142 7.49995V7.49995Z" fill="#1262AF"/>
</svg>
