<svg width="25" height="25" viewBox="0 0 25 25" fill="none" xmlns="http://www.w3.org/2000/svg">
<path d="M12.5 22.8034C9.76739 22.8034 7.14667 21.7179 5.2144 19.7856C3.28213 17.8533 2.19659 15.2326 2.19659 12.5C2.19659 9.76733 3.28213 7.14661 5.2144 5.21434C7.14667 3.28207 9.76739 2.19653 12.5 2.19653C15.2327 2.19653 17.8534 3.28207 19.7857 5.21434C21.7179 7.14661 22.8035 9.76733 22.8035 12.5C22.8035 15.2326 21.7179 17.8533 19.7857 19.7856C17.8534 21.7179 15.2327 22.8034 12.5 22.8034ZM12.5 24.2753C15.623 24.2753 18.6182 23.0347 20.8265 20.8264C23.0348 18.6181 24.2754 15.623 24.2754 12.5C24.2754 9.37695 23.0348 6.38184 20.8265 4.17353C18.6182 1.96522 15.623 0.724609 12.5 0.724609C9.37701 0.724609 6.3819 1.96522 4.17359 4.17353C1.96529 6.38184 0.72467 9.37695 0.72467 12.5C0.72467 15.623 1.96529 18.6181 4.17359 20.8264C6.3819 23.0347 9.37701 24.2753 12.5 24.2753V24.2753Z" fill="#1262AF"/>
<path d="M9.87143 7.49995C10.0103 7.42845 10.1662 7.39664 10.3219 7.40802C10.4777 7.4194 10.6273 7.47354 10.7543 7.56446L16.6967 11.809C16.8067 11.8875 16.8964 11.9912 16.9583 12.1114C17.0202 12.2316 17.0525 12.3648 17.0525 12.5C17.0525 12.6352 17.0202 12.7685 16.9583 12.8886C16.8964 13.0088 16.8067 13.1125 16.6967 13.191L10.7543 17.4356C10.6274 17.5264 10.4778 17.5805 10.3221 17.5919C10.1664 17.6033 10.0106 17.5715 9.87183 17.5001C9.73302 17.4287 9.6166 17.3204 9.53535 17.1871C9.45411 17.0538 9.41119 16.9007 9.41132 16.7446V8.25548C9.41115 8.09942 9.45401 7.94633 9.53518 7.81304C9.61635 7.67976 9.7327 7.57142 9.87143 7.49995V7.49995Z" fill="#1262AF"/>
</svg>
