<svg width="45" height="39" viewBox="0 0 45 39" fill="none" xmlns="http://www.w3.org/2000/svg">
<path d="M33.8984 11.0029C33.5832 10.1424 32.7007 9.52995 31.6606 9.52995H27.7207V8.07161C27.7207 7.26953 27.0116 6.61328 26.1448 6.61328H19.8411C18.9744 6.61328 18.2652 7.26953 18.2652 8.07161V9.52995H14.3254C13.2853 9.52995 12.4185 10.1424 12.0876 11.0029L8.98298 19.2716C8.87267 19.5779 8.80963 19.8987 8.80963 20.2341V30.6758C8.80963 31.8862 9.8655 32.8633 11.1735 32.8633C12.4815 32.8633 13.5374 31.8862 13.5374 30.6758V29.9466H32.4485V30.6758C32.4485 31.8716 33.5044 32.8633 34.8124 32.8633C36.1047 32.8633 37.1763 31.8862 37.1763 30.6758V20.2341C37.1763 19.9133 37.1133 19.5779 37.0029 19.2716L33.8984 11.0029ZM14.3254 25.5716C13.0174 25.5716 11.9615 24.5945 11.9615 23.3841C11.9615 22.1737 13.0174 21.1966 14.3254 21.1966C15.6334 21.1966 16.6893 22.1737 16.6893 23.3841C16.6893 24.5945 15.6334 25.5716 14.3254 25.5716ZM31.6606 25.5716C30.3525 25.5716 29.2967 24.5945 29.2967 23.3841C29.2967 22.1737 30.3525 21.1966 31.6606 21.1966C32.9686 21.1966 34.0244 22.1737 34.0244 23.3841C34.0244 24.5945 32.9686 25.5716 31.6606 25.5716ZM11.9615 18.2799L14.3254 11.7174H31.6606L34.0244 18.2799H11.9615Z" fill="white"/>
</svg>
