<svg width="45" height="39" viewBox="0 0 45 39" fill="none" xmlns="http://www.w3.org/2000/svg">
<path d="M32.6918 7.61328H11.8045C10.3645 7.61328 9.19354 8.77335 9.19354 10.1998V28.3058C9.19354 29.7322 10.3645 30.8923 11.8045 30.8923H32.6918C34.1317 30.8923 35.3027 29.7322 35.3027 28.3058V10.1998C35.3027 8.77335 34.1317 7.61328 32.6918 7.61328ZM32.6931 15.373C32.6918 15.373 32.6918 15.373 32.6931 15.373H32.086L28.6044 10.1998H32.6918L32.6931 15.373ZM26.8172 23.1326L19.6372 27.0125V19.2528L26.8172 23.1326ZM25.5587 15.373L22.0771 10.1998H25.4661L28.9477 15.373H25.5587V15.373ZM22.4204 15.373H19.0315L15.5498 10.1998H18.9388L22.4204 15.373ZM11.8045 10.1998H12.4115L15.8931 15.373H11.8045V10.1998Z" fill="white"/>
</svg>
