<svg width="45" height="39" viewBox="0 0 45 39" fill="none" xmlns="http://www.w3.org/2000/svg">
<path d="M32.5569 31.9004C32.502 30.727 32.4293 29.5598 32.3711 28.3952C32.183 24.752 32.1984 21.0554 32.0015 17.3942C31.8047 13.7604 31.9214 10.1242 31.8176 6.49059C31.7966 5.73539 31.8304 4.24396 31.0489 3.81344C29.368 2.8886 28.37 5.41121 27.9424 6.43821C27.1715 8.30235 26.7261 10.263 26.1754 12.1942C25.7061 13.8473 25.1717 15.4951 24.9905 17.2067C24.8564 18.4909 24.8687 19.9287 25.5396 21.0859C25.8765 21.6674 26.4591 22.0633 27.1224 22.2306C27.8108 22.4067 28.5979 22.1761 29.2512 22.487C29.4196 22.5684 29.5679 22.7374 29.6355 22.9082C29.8472 23.4584 29.647 24.2933 29.5808 24.8609C29.3711 26.6896 29.1494 28.5366 29.0501 30.374C28.9914 31.4853 28.9265 32.9084 29.5987 33.8766C30.0107 34.4646 30.8458 35.0136 31.5993 34.7213C32.7254 34.2903 32.6037 32.8342 32.5569 31.9004Z" fill="white"/>
<path d="M18.2303 4.62462C17.9067 4.75436 18.0294 5.91144 18.015 6.26695C17.9937 6.90566 18.0373 7.75081 17.9604 8.57858C17.96 8.58598 17.9589 8.59111 17.9578 8.59624C17.9511 8.65376 17.9457 8.71581 17.9363 8.78134C17.9262 8.8446 17.9155 8.9056 17.9077 8.96825C17.8387 9.37183 17.7074 9.84976 17.4591 10.0789C17.1773 10.341 16.5457 10.2858 16.3264 9.97619C15.9676 9.47212 15.9945 8.34672 15.9727 8.31353C15.9581 7.78113 15.8805 6.17084 15.7642 5.10916C15.7545 5.02917 15.7391 4.54794 15.2997 4.49652C15.0948 4.47427 14.8792 4.64887 14.8093 4.96776C14.603 5.90905 14.4097 7.70337 14.3976 7.98552C14.3951 8.01284 14.3939 8.0447 14.3938 8.07141C14.3938 8.07141 14.3927 8.07655 14.3933 8.07881C14.392 8.13738 14.3222 9.54315 13.9664 10.0281C13.7805 10.2824 13.2978 10.4824 12.8181 10.2133C12.627 10.105 12.4961 9.89623 12.4038 9.67262C11.9022 8.11128 12.3525 6.39123 12.4166 5.57163C12.4355 5.3411 12.6443 4.57144 12.1786 4.59719C11.4773 4.63528 10.5718 7.62296 10.4099 8.30773C10.0129 10.0116 9.95271 11.8321 10.6432 13.4757C11.0268 14.3858 11.7771 15.1308 12.7074 15.492C13.1186 15.6502 13.5756 15.765 14.0594 15.8316C13.8853 19.705 13.6877 23.747 13.5077 25.9965C13.3692 27.6893 13.2058 29.4007 13.2278 31.1006C13.2408 32.1162 13.2301 33.3271 13.8967 34.1787C14.5941 35.0683 16.065 34.6591 16.4622 33.6078C16.9077 32.4228 16.7781 31.0418 16.6264 28.866C16.4741 26.6879 16.3026 23.7165 16.2081 22.1179C16.0698 19.7639 16.0216 17.7069 16.0083 15.8301C17.247 15.6531 18.4022 15.1216 19.0488 14.1442C19.3324 13.7167 19.5192 13.239 19.6467 12.7475C19.8424 12.0031 19.9378 11.1875 19.8955 10.4196C19.8525 9.71263 19.2715 4.20754 18.2303 4.62462Z" fill="white"/>
</svg>
