<svg width="46" height="39" viewBox="0 0 46 39" fill="none" xmlns="http://www.w3.org/2000/svg">
<path d="M10.2322 26.9466C10.2322 28.4133 10.8884 29.7299 11.9146 30.6466V32.7799C11.9146 34.1633 13.0418 35.2799 14.4382 35.2799C15.8345 35.2799 16.9617 34.1633 16.9617 32.7799V31.9466H30.4206V32.7799C30.4206 34.1466 31.5478 35.2799 32.9442 35.2799C34.3237 35.2799 35.4677 34.1633 35.4677 32.7799V30.6466C36.494 29.7299 37.1501 28.4133 37.1501 26.9466V10.2799C37.1501 4.44661 31.1272 3.61328 23.6912 3.61328C16.2551 3.61328 10.2322 4.44661 10.2322 10.2799V26.9466ZM16.1205 28.6133C14.7242 28.6133 13.597 27.4966 13.597 26.1133C13.597 24.7299 14.7242 23.6133 16.1205 23.6133C17.5169 23.6133 18.6441 24.7299 18.6441 26.1133C18.6441 27.4966 17.5169 28.6133 16.1205 28.6133ZM31.2618 28.6133C29.8654 28.6133 28.7383 27.4966 28.7383 26.1133C28.7383 24.7299 29.8654 23.6133 31.2618 23.6133C32.6582 23.6133 33.7854 24.7299 33.7854 26.1133C33.7854 27.4966 32.6582 28.6133 31.2618 28.6133ZM33.7854 18.6133H13.597V10.2799H33.7854V18.6133Z" fill="white"/>
</svg>
