<svg width="35" height="46" viewBox="0 0 35 46" fill="none" xmlns="http://www.w3.org/2000/svg">
<path fill-rule="evenodd" clip-rule="evenodd" d="M34.5003 25.9755C34.6779 24.9921 34.7671 23.9954 34.7668 22.9967C34.7668 22.3818 34.7328 21.8031 34.6673 21.2508C34.6533 21.1311 32.6708 25.1058 29.499 27.6235C31.7055 25.6902 34.5837 20.6461 34.5431 20.4274C34.5082 20.2376 34.4688 20.0486 34.4249 19.8606C34.0457 18.2336 33.3618 16.7874 32.4298 15.2152C32.141 18.5518 31.1317 22.1062 28.4836 25.1799C31.2319 21.9545 32.1881 14.6084 31.5332 13.5967C28.8972 9.55476 23.3466 6.01709 17.4042 6.01709L17.3624 6.12376V6.02456C11.4198 6.02456 5.86962 9.56202 3.23362 13.6038C2.57854 14.6154 3.53474 21.9616 6.283 25.1869C3.63511 22.1133 2.62565 18.5588 2.33706 15.2222C1.40442 16.7947 0.720906 18.2405 0.341696 19.8677C0.29781 20.0557 0.2584 20.2446 0.223498 20.4344C0.182967 20.6532 3.06131 25.6973 5.26781 27.6305C2.09578 25.1127 0.113364 21.1379 0.0991467 21.2579C0.0316613 21.8375 -0.00142737 22.4204 4.71829e-05 23.0038C4.71829e-05 24.02 0.091295 25.0153 0.266364 25.9826C0.428276 26.8772 4.11491 29.3403 4.2104 29.4177C1.53259 28.3947 0.427003 26.7855 0.527588 27.1742C2.42852 34.5353 9.24474 39.9832 17.3624 39.9832V39.9756L17.4042 39.976C25.5219 39.976 32.3381 34.5285 34.2388 27.1669C34.3396 26.7782 33.2342 28.3874 30.5562 29.4105C30.6515 29.3333 34.3381 26.8704 34.5003 25.9755V25.9755ZM23.0168 26.6292C22.8415 26.7037 22.6641 26.7679 22.4825 26.816C20.8179 27.2595 18.5036 27.0966 17.4216 25.7143C16.3271 24.316 16.6301 22.0477 17.481 20.616C18.3402 19.1706 19.63 18.0965 20.7761 16.88C21.3252 16.2996 21.8847 15.7287 22.4543 15.1675C22.8239 14.8016 23.8327 14.0176 23.8119 13.4946C23.8024 13.247 23.3423 12.8108 23.2144 12.5765C23.0278 12.2351 22.9113 11.8931 22.7117 11.568C22.2699 10.8499 21.6767 10.521 20.878 10.367C19.8796 10.1746 19.1634 10.2603 18.3364 10.802C17.7142 11.2096 17.0666 11.9695 16.3067 12.0496C15.106 12.1762 9.87753 13.0239 9.62989 13.1771C10.2748 13.1304 18.1586 13.2796 19.0518 13.4946C20.102 13.7474 20.0544 14.575 19.3414 15.226C17.0991 17.2728 13.7959 18.491 12.3877 21.3073C11.729 22.624 11.3065 23.5155 11.3048 25.0556C11.3042 25.6902 11.3549 26.9924 12.1566 28.6094C12.1195 28.5856 10.8895 27.1669 10.8401 25.9668C7.87305 24.0265 6.36406 21.1249 6.36406 17.3488C6.36406 11.3631 11.2798 6.51058 17.3435 6.51058C23.4073 6.51058 28.3228 11.3629 28.3228 17.3488C28.3232 21.2849 26.6026 24.9259 23.0168 26.6292V26.6292Z" fill="#B4282E"/>
<path fill-rule="evenodd" clip-rule="evenodd" d="M17.8186 29.917L16.3862 33.7659C15.5605 35.9842 12.0558 35.5181 11.9325 35.5181C11.6445 35.5181 11.4242 35.4869 11.204 35.2834L11.7285 34.7123C11.8535 34.8063 12.0492 34.8611 12.2491 34.8611C12.4125 34.8611 14.2133 35.2433 14.7501 33.7659L16.1825 29.917H17.8186V29.917ZM27.9335 34.7436L27.6918 35.3929H22.7638L24.8018 29.917H26.4555L24.6588 34.7436H27.9335V34.7436ZM20.5868 29.9307L16.2207 35.4062H17.0687L18.1738 33.9199H20.1516L19.822 35.4062H21.564L22.902 29.9307H20.5868V29.9307ZM18.7493 33.1434L21.0019 30.4476L20.3814 33.1434H18.7493V33.1434Z" fill="white"/>
</svg>
