<svg width="21" height="21" viewBox="0 0 21 21" fill="none" xmlns="http://www.w3.org/2000/svg">
<path d="M10.4676 6.33317C8.16755 6.33317 6.30088 8.19984 6.30088 10.4998C6.30088 12.7998 8.16755 14.6665 10.4676 14.6665C12.7676 14.6665 14.6342 12.7998 14.6342 10.4998C14.6342 8.19984 12.7676 6.33317 10.4676 6.33317ZM10.4676 2.1665C5.86755 2.1665 2.13422 5.89984 2.13422 10.4998C2.13422 15.0998 5.86755 18.8332 10.4676 18.8332C15.0676 18.8332 18.8009 15.0998 18.8009 10.4998C18.8009 5.89984 15.0676 2.1665 10.4676 2.1665ZM10.4676 17.1665C6.78422 17.1665 3.80088 14.1832 3.80088 10.4998C3.80088 6.8165 6.78422 3.83317 10.4676 3.83317C14.1509 3.83317 17.1342 6.8165 17.1342 10.4998C17.1342 14.1832 14.1509 17.1665 10.4676 17.1665Z" fill="#1262AE"/>
</svg>
