<svg width="20" height="21" viewBox="0 0 20 21" fill="none" xmlns="http://www.w3.org/2000/svg">
<path d="M10 6.33317C7.70002 6.33317 5.83335 8.19984 5.83335 10.4998C5.83335 12.7998 7.70002 14.6665 10 14.6665C12.3 14.6665 14.1667 12.7998 14.1667 10.4998C14.1667 8.19984 12.3 6.33317 10 6.33317ZM10 2.1665C5.40002 2.1665 1.66669 5.89984 1.66669 10.4998C1.66669 15.0998 5.40002 18.8332 10 18.8332C14.6 18.8332 18.3334 15.0998 18.3334 10.4998C18.3334 5.89984 14.6 2.1665 10 2.1665ZM10 17.1665C6.31669 17.1665 3.33335 14.1832 3.33335 10.4998C3.33335 6.8165 6.31669 3.83317 10 3.83317C13.6834 3.83317 16.6667 6.8165 16.6667 10.4998C16.6667 14.1832 13.6834 17.1665 10 17.1665Z" fill="#1262AE"/>
</svg>
