<svg width="35" height="46" viewBox="0 0 35 46" fill="none" xmlns="http://www.w3.org/2000/svg">
<path fill-rule="evenodd" clip-rule="evenodd" d="M17.3841 8.08396C8.77562 8.08396 1.73065 15.2873 1.73065 24.2575C1.73065 33.2269 8.77625 40.4296 17.3841 40.4296C25.9912 40.4296 33.0362 33.227 33.0362 24.2575C33.0362 15.2872 25.9905 8.08396 17.3841 8.08396ZM0.17688 24.2575C0.17688 14.5242 7.84162 6.56445 17.3841 6.56445C26.9245 6.56445 34.5899 14.5243 34.5899 24.2575C34.5899 33.9901 26.9252 41.9491 17.3841 41.9491C7.84241 41.9491 0.17688 33.9901 0.17688 24.2575Z" fill="#CF4037"/>
<path fill-rule="evenodd" clip-rule="evenodd" d="M22.3444 20.5448C21.5874 15.2974 17.164 12.7063 14.4009 11.1542C11.8366 9.71456 9.5407 9.06036 9.48531 9.22912C12.4018 11.5743 14.2745 15.228 14.2745 19.333C14.2745 26.0645 9.23534 31.5834 2.8335 32.0987L3.23828 32.7238C11.4339 31.4473 33.3664 27.3756 33.3664 27.3756L33.4246 26.8972L20.1181 26.4416C21.5867 24.8894 22.5922 22.2546 22.3444 20.5448V20.5448Z" fill="#CF4037"/>
</svg>
