<svg width="17" height="18" viewBox="0 0 17 18" fill="none" xmlns="http://www.w3.org/2000/svg">
<path d="M16.1059 6.05277L11.1164 5.26854L8.886 0.378305C8.82508 0.244413 8.72486 0.136025 8.60106 0.0701416C8.29057 -0.0956291 7.91326 0.0425132 7.75802 0.378305L5.52759 5.26854L0.538115 6.05277C0.400555 6.07402 0.274787 6.14415 0.178495 6.25042C0.0620838 6.37982 -0.00206402 6.5539 0.000146863 6.73443C0.00235775 6.91495 0.0707465 7.08714 0.190286 7.21316L3.80024 11.0195L2.94737 16.3943C2.92737 16.5193 2.94016 16.6479 2.9843 16.7655C3.02843 16.8831 3.10215 16.9849 3.19708 17.0595C3.29201 17.134 3.40435 17.1783 3.52138 17.1874C3.63841 17.1964 3.75544 17.1698 3.85919 17.1105L8.32201 14.573L12.7848 17.1105C12.9067 17.1807 13.0482 17.204 13.1838 17.1785C13.5257 17.1148 13.7556 16.7641 13.6967 16.3943L12.8438 11.0195L16.4537 7.21316C16.552 7.10902 16.6168 6.97301 16.6365 6.82424C16.6896 6.45232 16.4498 6.10802 16.1059 6.05277V6.05277Z" fill="#FDBF00"/>
</svg>
