<svg width="17" height="18" viewBox="0 0 17 18" fill="none" xmlns="http://www.w3.org/2000/svg">
<path d="M16.1059 6.05277L11.1164 5.26854L8.88598 0.378305C8.82506 0.244413 8.72483 0.136025 8.60103 0.0701416C8.29054 -0.0956291 7.91323 0.0425132 7.75799 0.378305L5.52756 5.26854L0.538084 6.05277C0.400525 6.07402 0.274756 6.14415 0.178465 6.25042C0.0620533 6.37982 -0.00209454 6.5539 0.000116346 6.73443C0.00232723 6.91495 0.070716 7.08714 0.190255 7.21316L3.80021 11.0195L2.94734 16.3943C2.92734 16.5193 2.94013 16.6479 2.98427 16.7655C3.0284 16.8831 3.10212 16.9849 3.19705 17.0595C3.29198 17.134 3.40432 17.1783 3.52135 17.1874C3.63838 17.1964 3.75541 17.1698 3.85916 17.1105L8.32198 14.573L12.7848 17.1105C12.9066 17.1807 13.0481 17.204 13.1837 17.1785C13.5257 17.1148 13.7556 16.7641 13.6966 16.3943L12.8438 11.0195L16.4537 7.21316C16.552 7.10902 16.6168 6.97301 16.6365 6.82424C16.6895 6.45232 16.4498 6.10802 16.1059 6.05277V6.05277Z" fill="#FDBF00"/>
</svg>
