<svg width="17" height="18" viewBox="0 0 17 18" fill="none" xmlns="http://www.w3.org/2000/svg">
<path d="M16.1364 6.05277L11.1374 5.26854L8.90264 0.378305C8.8416 0.244413 8.74119 0.136025 8.61714 0.0701416C8.30606 -0.0956291 7.92802 0.0425132 7.77248 0.378305L5.53776 5.26854L0.538692 6.05277C0.400868 6.07402 0.274857 6.14415 0.17838 6.25042C0.0617453 6.37982 -0.00252593 6.5539 -0.000310794 6.73443C0.00190434 6.91495 0.0704246 7.08714 0.190194 7.21316L3.80709 11.0195L2.95258 16.3943C2.93254 16.5193 2.94536 16.6479 2.98958 16.7655C3.0338 16.8831 3.10765 16.9849 3.20277 17.0595C3.29788 17.134 3.41044 17.1783 3.5277 17.1874C3.64495 17.1964 3.7622 17.1698 3.86616 17.1105L8.33756 14.573L12.809 17.1105C12.931 17.1807 13.0728 17.204 13.2087 17.1785C13.5512 17.1148 13.7816 16.7641 13.7225 16.3943L12.868 11.0195L16.4849 7.21316C16.5834 7.10902 16.6483 6.97301 16.668 6.82424C16.7212 6.45232 16.481 6.10802 16.1364 6.05277V6.05277Z" fill="#FDBF00"/>
</svg>
