<svg width="25" height="24" viewBox="0 0 25 24" fill="none" xmlns="http://www.w3.org/2000/svg">
<g clip-path="url(#clip0_1900_4315)">
<path d="M12.8729 21.8914C10.2496 21.8914 7.73372 20.8493 5.87874 18.9943C4.02376 17.1394 2.98165 14.6235 2.98165 12.0001C2.98165 9.37681 4.02376 6.86092 5.87874 5.00594C7.73372 3.15096 10.2496 2.10884 12.8729 2.10884C15.4963 2.10884 18.0122 3.15096 19.8672 5.00594C21.7221 6.86092 22.7642 9.37681 22.7642 12.0001C22.7642 14.6235 21.7221 17.1394 19.8672 18.9943C18.0122 20.8493 15.4963 21.8914 12.8729 21.8914ZM12.8729 23.3045C15.871 23.3045 18.7463 22.1135 20.8663 19.9935C22.9863 17.8735 24.1773 14.9982 24.1773 12.0001C24.1773 9.00205 22.9863 6.12674 20.8663 4.00677C18.7463 1.88679 15.871 0.695801 12.8729 0.695801C9.87485 0.695801 6.99954 1.88679 4.87957 4.00677C2.75959 6.12674 1.5686 9.00205 1.5686 12.0001C1.5686 14.9982 2.75959 17.8735 4.87957 19.9935C6.99954 22.1135 9.87485 23.3045 12.8729 23.3045V23.3045Z" fill="#1262AF"/>
<path d="M10.3494 7.19979C10.4827 7.13115 10.6324 7.10062 10.7819 7.11154C10.9314 7.12247 11.0751 7.17444 11.197 7.26173L16.9016 11.3365C17.0073 11.4119 17.0934 11.5114 17.1528 11.6268C17.2122 11.7422 17.2432 11.8701 17.2432 11.9999C17.2432 12.1297 17.2122 12.2576 17.1528 12.3729C17.0934 12.4883 17.0073 12.5879 16.9016 12.6632L11.197 16.738C11.0751 16.8252 10.9316 16.8772 10.7821 16.8881C10.6326 16.899 10.4831 16.8685 10.3498 16.8C10.2166 16.7314 10.1048 16.6274 10.0268 16.4995C9.9488 16.3715 9.90759 16.2245 9.90772 16.0746V7.9251C9.90756 7.77529 9.9487 7.62832 10.0266 7.50037C10.1046 7.37241 10.2162 7.26841 10.3494 7.19979V7.19979Z" fill="#1262AF"/>
</g>
<defs>
<clipPath id="clip0_1900_4315">
<rect width="24" height="24" fill="white" transform="translate(0.873047)"/>
</clipPath>
</defs>
</svg>
