<svg width="25" height="25" viewBox="0 0 25 25" fill="none" xmlns="http://www.w3.org/2000/svg">
<g clip-path="url(#clip0_1900_4367)">
<path d="M12.8729 22.619C10.2496 22.619 7.73372 21.5769 5.87874 19.7219C4.02376 17.8669 2.98165 15.351 2.98165 12.7277C2.98165 10.1043 4.02376 7.58846 5.87874 5.73348C7.73372 3.8785 10.2496 2.83638 12.8729 2.83638C15.4963 2.83638 18.0122 3.8785 19.8672 5.73348C21.7221 7.58846 22.7642 10.1043 22.7642 12.7277C22.7642 15.351 21.7221 17.8669 19.8672 19.7219C18.0122 21.5769 15.4963 22.619 12.8729 22.619ZM12.8729 24.032C15.871 24.032 18.7463 22.841 20.8663 20.7211C22.9863 18.6011 24.1773 15.7258 24.1773 12.7277C24.1773 9.72958 22.9863 6.85428 20.8663 4.73431C18.7463 2.61433 15.871 1.42334 12.8729 1.42334C9.87485 1.42334 6.99954 2.61433 4.87957 4.73431C2.75959 6.85428 1.5686 9.72958 1.5686 12.7277C1.5686 15.7258 2.75959 18.6011 4.87957 20.7211C6.99954 22.841 9.87485 24.032 12.8729 24.032V24.032Z" fill="#1262AF"/>
<path d="M10.3494 7.92733C10.4827 7.85869 10.6324 7.82815 10.7819 7.83908C10.9314 7.85001 11.0751 7.90198 11.197 7.98927L16.9016 12.064C17.0073 12.1394 17.0934 12.239 17.1528 12.3543C17.2122 12.4697 17.2432 12.5976 17.2432 12.7274C17.2432 12.8572 17.2122 12.9851 17.1528 13.1005C17.0934 13.2159 17.0073 13.3154 16.9016 13.3908L11.197 17.4656C11.0751 17.5528 10.9316 17.6047 10.7821 17.6156C10.6326 17.6266 10.4831 17.5961 10.3498 17.5275C10.2166 17.4589 10.1048 17.355 10.0268 17.227C9.9488 17.099 9.90759 16.952 9.90772 16.8022V8.65264C9.90756 8.50282 9.9487 8.35586 10.0266 8.22791C10.1046 8.09995 10.2162 7.99595 10.3494 7.92733V7.92733Z" fill="#1262AF"/>
</g>
<defs>
<clipPath id="clip0_1900_4367">
<rect width="24" height="24" fill="white" transform="translate(0.873047 0.727539)"/>
</clipPath>
</defs>
</svg>
